<svg width="50" height="50" viewBox="0 0 50 50" fill="none" xmlns="http://www.w3.org/2000/svg">
<path d="M17.6812 31.0146C18.4937 31.0146 19.1521 31.6688 19.1521 32.4729C19.1513 32.6653 19.1126 32.8555 19.0382 33.0329C18.9639 33.2103 18.8553 33.3713 18.7187 33.5067C18.5821 33.6421 18.4202 33.7493 18.2422 33.8222C18.0642 33.895 17.8736 33.9321 17.6812 33.9313H11.7333C11.5408 33.9324 11.35 33.8955 11.1717 33.8228C10.9935 33.75 10.8313 33.6429 10.6945 33.5074C10.5577 33.372 10.449 33.2109 10.3745 33.0334C10.3 32.8559 10.2612 32.6654 10.2604 32.4729C10.2604 31.6688 10.9208 31.0146 11.7333 31.0146H17.6812ZM19.1187 25.6125C19.9312 25.6125 20.5896 26.2688 20.5896 27.0708C20.5888 27.2633 20.55 27.4538 20.4755 27.6313C20.401 27.8088 20.2923 27.9699 20.1555 28.1054C20.0187 28.2408 19.8565 28.348 19.6783 28.4207C19.5 28.4934 19.3092 28.5303 19.1167 28.5292H11.7667C11.5743 28.53 11.3837 28.4929 11.2057 28.4201C11.0277 28.3472 10.8658 28.24 10.7292 28.1046C10.5926 27.9692 10.4841 27.8082 10.4097 27.6308C10.3353 27.4535 10.2967 27.2632 10.2958 27.0708C10.2958 26.2667 10.9542 25.6125 11.7667 25.6125H19.1187ZM27.1687 18.4042C27.1748 17.2394 27.6429 16.1247 28.4702 15.3048C29.2976 14.4849 30.4165 14.0268 31.5812 14.0313C32.7464 14.0268 33.8656 14.4851 34.693 15.3055C35.5204 16.1258 35.9882 17.2411 35.9937 18.4063C35.9871 19.5716 35.5191 20.6869 34.6922 21.508C33.8652 22.3291 32.7466 22.7892 31.5812 22.7875C30.4157 22.7886 29.2971 22.3281 28.4702 21.5067C27.6433 20.6852 27.1754 19.5697 27.1687 18.4042ZM40.2083 32.0688C40.4167 33.3583 39.4208 34.5271 38.1146 34.5229H25.0479C24.7411 34.5235 24.4377 34.4574 24.159 34.3291C23.8802 34.2008 23.6326 34.0135 23.4335 33.78C23.2343 33.5466 23.0883 33.2726 23.0055 32.9771C22.9228 32.6816 22.9052 32.3717 22.9542 32.0688C23.6104 28.0229 25.8521 24.7583 28.7792 23.4646C29.6364 23.9407 30.6007 24.1905 31.5812 24.1905C32.5618 24.1905 33.5261 23.9407 34.3833 23.4646C37.3104 24.7583 39.5542 28.0271 40.2083 32.0688ZM22.0583 23.1313C4.6 23.1313 21.7521 23.1271 11.7646 23.1271C11.5721 23.1282 11.3812 23.0913 11.203 23.0186C11.0247 22.9459 10.8626 22.8387 10.7258 22.7033C10.589 22.5678 10.4802 22.4067 10.4057 22.2292C10.3312 22.0517 10.2925 21.8613 10.2917 21.6688C10.2917 20.8646 10.9521 20.2104 11.7646 20.2104L22.0583 20.2125C22.8708 20.2125 23.5312 20.8667 23.5292 21.6729C23.5292 21.8655 23.491 22.0561 23.417 22.2339C23.3429 22.4117 23.2344 22.573 23.0976 22.7086C22.9609 22.8441 22.7986 22.9513 22.6203 23.0239C22.4419 23.0964 22.2509 23.1329 22.0583 23.1313ZM11.7667 17.7271C11.5739 17.729 11.3827 17.6927 11.2041 17.6203C11.0255 17.5479 10.863 17.4408 10.726 17.3051C10.5891 17.1695 10.4803 17.0081 10.4061 16.8302C10.3319 16.6523 10.2937 16.4615 10.2937 16.2688C10.2937 15.4646 10.9542 14.8104 11.7667 14.8104H22.0583C22.8687 14.8104 23.5271 15.4625 23.5271 16.2688C23.5249 16.6568 23.3687 17.0282 23.093 17.3012C22.8172 17.5742 22.4443 17.7267 22.0562 17.725L11.7667 17.7271ZM28.0354 38.8042C28.3979 38.8042 28.7458 38.661 29.0033 38.4059C29.2608 38.1507 29.4071 37.8042 29.4104 37.4417H44.1187V11.1917H5.88333V37.4396H20.5896C20.5896 38.1917 21.2042 38.8021 21.9646 38.8021L28.0354 38.8042ZM50 37.4417V39.4354C50 40.6958 48.9667 41.7188 47.6958 41.7188H2.30417C1.03333 41.7188 0 40.6979 0 39.4354V37.4417H2.94375V11.1604C2.94375 9.57083 4.24167 8.28125 5.84792 8.28125H44.1542C45.7583 8.28125 47.0583 9.57083 47.0583 11.1604V37.4417H50Z" fill="#A33534"/>
</svg>
