<svg width="40" height="40" viewBox="0 0 40 40" fill="none" xmlns="http://www.w3.org/2000/svg">
<g clip-path="url(#clip0_159_329)">
<path d="M1.63818 1.48669V12.8687L3.12256 13.8965L8.92568 12.5244C8.60404 12.234 8.37021 12.0156 8.26396 11.9018C6.76475 10.2948 6.85029 7.7763 8.45693 6.27685C10.0636 4.7774 12.5827 4.86568 14.0819 6.47216C15.5817 8.07935 34.4652 34.1455 34.4652 34.1455C34.4652 34.1455 33.1358 33.0346 32.3217 32.3535L32.324 32.3608L30.4272 32.8101L38.6668 38.5156L33.391 30.8984L33.806 29.6898L32.8415 28.0687L32.8197 28.0615L32.3581 29.4067L31.4744 28.1298L32.0017 26.6528L31.0325 25.0219L30.4512 26.6529L29.404 25.1416L30.0558 23.3765L29.0938 21.7578L28.3883 23.6742L27.1676 21.914L27.9195 19.7828L26.9503 18.1469L26.1421 20.4345L24.5991 18.2056L25.5025 15.7104L24.5381 14.087L23.5787 16.7334L21.7744 14.126L22.8241 11.2011L21.8573 9.57271L20.7539 12.6514L17.8461 8.45709L19.2036 5.10505L18.2661 3.52787L16.8526 7.02162L13.0194 1.48685H1.63818V1.48669ZM11.3378 6.84326C10.2875 6.84326 9.43592 7.69482 9.43592 8.74513C9.43592 9.79537 10.2875 10.6469 11.3379 10.6469C12.3883 10.6469 13.2397 9.79537 13.2397 8.74513C13.2397 7.69474 12.3882 6.84326 11.3378 6.84326ZM14.5776 11.062C14.2481 11.0758 13.9279 11.2003 13.6767 11.4379C13.1025 11.9814 13.1072 12.9165 13.6865 13.5229C14.2656 14.1294 23.723 21.9555 23.723 21.9555C23.723 21.9555 16.3524 12.1665 15.7665 11.5504C15.4407 11.2092 15.0011 11.0443 14.5776 11.0621L14.5776 11.062ZM10.2659 13.7085L4.73623 15.0146L9.60443 18.3861L14.3969 17.2533C12.7597 15.859 11.34 14.6442 10.2661 13.7084L10.2659 13.7085ZM15.7762 18.4276L11.2206 19.5042L14.3115 21.6454L18.4276 20.6737C17.5151 19.9023 16.6304 19.1526 15.7762 18.4276ZM19.8144 21.8456L15.9253 22.7636L18.5937 24.6117L22.1093 23.7817C21.3423 23.1356 20.578 22.4903 19.8144 21.8458V21.8456ZM23.5034 24.9534L20.2098 25.7323L22.3412 27.2069L25.3416 26.4989C24.7387 25.9923 24.1256 25.477 23.5033 24.9536L23.5034 24.9534ZM26.7358 27.6708L23.9549 28.3276L25.803 29.6044L28.33 29.0087C27.788 28.554 27.3181 28.1597 26.7358 27.6708ZM29.7264 30.1781L27.4168 30.725L28.8133 31.6894L30.9324 31.189C30.5012 30.8277 30.2188 30.5908 29.7264 30.178V30.1781Z" fill="#A33534"/>
</g>
<defs>
<clipPath id="clip0_159_329">
<rect width="40" height="40" fill="white"/>
</clipPath>
</defs>
</svg>
