<svg width="40" height="40" viewBox="0 0 40 40" fill="none" xmlns="http://www.w3.org/2000/svg">
<g clip-path="url(#clip0_7_130)">
<path d="M27.5 7.5C27.5 8.61719 27.2578 9.67969 26.8125 10.6406L30.9375 17.7656C29.0859 19.7422 26.7031 21.2109 24.0234 21.9531L20 15L14.6875 24.1797C16.3672 24.7109 18.1484 25 20.0078 25C25.5312 25 30.4609 22.4453 33.6719 18.4375C34.5391 17.3594 36.1094 17.1875 37.1875 18.0469C38.2656 18.9062 38.4375 20.4844 37.5781 21.5625C33.4453 26.7031 27.1094 30 20 30C17.2344 30 14.5781 29.5 12.1328 28.5859L7.71094 36.2266C7.34375 36.8594 6.79688 37.375 6.14062 37.7031L1.8125 39.8672C1.42188 40.0625 0.960938 40.0391 0.59375 39.8125C0.226562 39.5859 0 39.1797 0 38.75V34.4219C0 33.7656 0.171875 33.1172 0.507812 32.5391L5.19531 24.4375C4.19531 23.5625 3.26562 22.6016 2.4375 21.5625C1.57031 20.4844 1.75 18.9141 2.82812 18.0469C3.90625 17.1797 5.47656 17.3594 6.34375 18.4375C6.78906 18.9922 7.26562 19.5156 7.76562 20.0078L13.1875 10.6406C12.75 9.6875 12.5 8.625 12.5 7.5C12.5 3.35938 15.8594 0 20 0C24.1406 0 27.5 3.35938 27.5 7.5ZM29.1406 30.7734C31.6875 29.7734 34.0234 28.3672 36.0859 26.6406L39.5 32.5391C39.8281 33.1094 40.0078 33.7578 40.0078 34.4219V38.75C40.0078 39.1797 39.7812 39.5859 39.4141 39.8125C39.0469 40.0391 38.5859 40.0625 38.1953 39.8672L33.8672 37.7031C33.2109 37.375 32.6641 36.8594 32.2969 36.2266L29.1406 30.7734ZM20 10C20.663 10 21.2989 9.73661 21.7678 9.26777C22.2366 8.79893 22.5 8.16304 22.5 7.5C22.5 6.83696 22.2366 6.20107 21.7678 5.73223C21.2989 5.26339 20.663 5 20 5C19.337 5 18.7011 5.26339 18.2322 5.73223C17.7634 6.20107 17.5 6.83696 17.5 7.5C17.5 8.16304 17.7634 8.79893 18.2322 9.26777C18.7011 9.73661 19.337 10 20 10Z" fill="#A33534"/>
</g>
<defs>
<clipPath id="clip0_7_130">
<rect width="40" height="40" fill="white"/>
</clipPath>
</defs>
</svg>
