<svg width="40" height="40" viewBox="0 0 40 40" fill="none" xmlns="http://www.w3.org/2000/svg">
<g clip-path="url(#clip0_159_145)">
<path d="M3.3335 26.0267C3.3335 27.4383 4.47016 28.575 6.74183 30.8467L9.1535 33.2583C11.4252 35.53 12.5618 36.6667 13.9735 36.6667C15.3852 36.6667 16.5235 35.53 18.7952 33.2583L33.2585 18.795C35.5302 16.5217 36.6668 15.3833 36.6668 13.9733C36.6668 12.5633 35.5302 11.425 33.2585 9.15334L30.8468 6.74168C28.5752 4.47001 27.4385 3.33334 26.0268 3.33334C24.7702 3.33334 23.7335 4.23334 21.9202 6.03001C21.9702 6.06668 22.0174 6.10723 22.0618 6.15168L24.4202 8.51001C24.5395 8.62538 24.6347 8.76335 24.7001 8.91589C24.7655 9.06842 24.7999 9.23246 24.8013 9.39844C24.8027 9.56441 24.771 9.72899 24.708 9.88259C24.6451 10.0362 24.5522 10.1757 24.4348 10.293C24.3174 10.4103 24.1778 10.5031 24.0241 10.5658C23.8705 10.6286 23.7059 10.6602 23.5399 10.6587C23.3739 10.6571 23.2099 10.6226 23.0574 10.557C22.905 10.4914 22.7671 10.3961 22.6518 10.2767L20.2952 7.92001C20.2514 7.8746 20.2102 7.82675 20.1718 7.77668L18.3835 9.56501C18.4335 9.60168 18.4813 9.64279 18.5268 9.68834L22.0618 13.2233C22.1846 13.3378 22.2831 13.4758 22.3515 13.6291C22.4198 13.7824 22.4565 13.948 22.4595 14.1158C22.4624 14.2836 22.4316 14.4504 22.3687 14.606C22.3058 14.7617 22.2123 14.903 22.0936 15.0217C21.9749 15.1404 21.8335 15.234 21.6778 15.2969C21.5222 15.3597 21.3555 15.3906 21.1876 15.3877C21.0198 15.3847 20.8543 15.348 20.7009 15.2796C20.5476 15.2113 20.4096 15.1128 20.2952 14.99L16.7585 11.4567C16.7147 11.4107 16.6735 11.3623 16.6352 11.3117L14.8502 13.1C14.8991 13.1367 14.9468 13.1778 14.9935 13.2233L17.3502 15.58C17.571 15.817 17.6912 16.1304 17.6855 16.4542C17.6797 16.778 17.5486 17.087 17.3195 17.316C17.0905 17.5451 16.7815 17.6763 16.4577 17.682C16.1339 17.6877 15.8205 17.5675 15.5835 17.3467L13.2218 14.9933C13.178 14.9479 13.1369 14.9001 13.0985 14.85L11.3118 16.6333C11.3629 16.67 11.4107 16.7111 11.4552 16.7567L14.9918 20.2933C15.2194 20.5292 15.3453 20.845 15.3423 21.1728C15.3393 21.5005 15.2077 21.814 14.9758 22.0456C14.7439 22.2773 14.4303 22.4086 14.1026 22.4113C13.7748 22.414 13.4591 22.2878 13.2235 22.06L9.6885 18.525C9.64471 18.4796 9.60353 18.4318 9.56516 18.3817L7.77683 20.17C7.82683 20.2056 7.87461 20.2467 7.92016 20.2933L10.2768 22.65C10.4976 22.887 10.6178 23.2004 10.6121 23.5242C10.6064 23.848 10.4752 24.157 10.2462 24.386C10.0172 24.6151 9.7082 24.7463 9.38437 24.752C9.06053 24.7577 8.74712 24.6375 8.51016 24.4167L6.15016 22.0633C6.10699 22.0184 6.06637 21.9711 6.0285 21.9217C4.23183 23.7333 3.3335 24.77 3.3335 26.0267Z" fill="#A33534"/>
</g>
<defs>
<clipPath id="clip0_159_145">
<rect width="40" height="40" fill="white"/>
</clipPath>
</defs>
</svg>
