<svg width="14" height="16" viewBox="0 0 14 16" fill="none" xmlns="http://www.w3.org/2000/svg">
<g clip-path="url(#clip0_159_323)">
<path d="M6.85305 0.0156494C6.94993 -0.00310059 7.04993 -0.00310059 7.1468 0.0156494L13.3968 1.26565C13.7468 1.3344 13.9999 1.64377 13.9999 2.00002C13.9999 2.35627 13.7468 2.66565 13.3968 2.7344L10.9999 3.21565V5.00002C10.9999 7.2094 9.2093 9.00002 6.99993 9.00002C4.79055 9.00002 2.99993 7.2094 2.99993 5.00002V3.21565L1.49993 2.91565V4.95002L1.99055 7.40002C2.01868 7.5469 1.98118 7.70002 1.88743 7.81565C1.79368 7.93127 1.64993 8.00002 1.49993 8.00002H0.499926C0.349926 8.00002 0.209301 7.9344 0.112426 7.81565C0.0155513 7.6969 -0.0219487 7.5469 0.00930126 7.40002L0.499926 4.95002V2.70627C0.203051 2.60315 -7.37386e-05 2.3219 -7.37386e-05 2.00002C-7.37386e-05 1.64377 0.253051 1.3344 0.603051 1.26565L6.85305 0.0156494ZM3.4968 10.2407C3.82493 10.1344 4.17805 10.2531 4.41555 10.5063L6.6343 12.8657C6.83118 13.075 7.16555 13.075 7.36243 12.8657L9.58118 10.5063C9.81868 10.2531 10.1718 10.1344 10.4999 10.2407C12.5312 10.8938 13.9999 12.7938 13.9999 15.0406C13.9999 15.5719 13.5687 16 13.0406 16H0.959301C0.431176 16 -7.37386e-05 15.5688 -7.37386e-05 15.0406C-7.37386e-05 12.7938 1.46868 10.8938 3.4968 10.2407Z" fill="#A33534"/>
</g>
<defs>
<clipPath id="clip0_159_323">
<rect width="14" height="16" fill="white"/>
</clipPath>
</defs>
</svg>
