<svg width="50" height="50" viewBox="0 0 50 50" fill="none" xmlns="http://www.w3.org/2000/svg">
<path fill-rule="evenodd" clip-rule="evenodd" d="M27.3828 6.73777C29.999 3.83084 34.8122 5.17605 35.5421 9.01805L36.9953 16.6666H13.0041L14.4573 9.01814C15.1873 5.17605 20.0004 3.83084 22.6166 6.73777C23.8902 8.15281 26.1092 8.15281 27.3828 6.73777ZM12.6083 18.7499L11.8167 22.9166H8.33325V27.0832H41.6666V22.9166H38.1828L37.3912 18.7499H12.6083ZM16.6667 41.6666L12.5 39.5832L8.33325 37.4999V45.8332H41.6666V37.4999L37.5 39.5832L33.3333 41.6666L25 45.8332L16.6667 41.6666ZM37.5 29.1666H12.5V31.2499H12.506C12.6419 34.1493 15.0357 36.4582 17.9687 36.4582H18.75C20.9647 36.4582 22.1639 35.0657 22.6518 33.3102C22.9599 32.2016 23.8494 31.2499 25 31.2499C26.1505 31.2499 27.04 32.2016 27.3481 33.3102C27.836 35.0657 29.0352 36.4582 31.25 36.4582H32.0312C34.9642 36.4582 37.358 34.1493 37.4939 31.2499H37.5V29.1666Z" fill="#0D2438"/>
</svg>
