<svg width="50" height="50" viewBox="0 0 50 50" fill="none" xmlns="http://www.w3.org/2000/svg">
<path d="M16.6667 10.4167H33.3334C34.991 10.4167 36.5807 11.0751 37.7528 12.2472C38.9249 13.4193 39.5834 15.0091 39.5834 16.6667V33.3333C39.5834 34.9909 38.9249 36.5806 37.7528 37.7527C36.5807 38.9248 34.991 39.5833 33.3334 39.5833H16.6667C15.0091 39.5833 13.4194 38.9248 12.2473 37.7527C11.0752 36.5806 10.4167 34.9909 10.4167 33.3333V16.6667C10.4167 15.0091 11.0752 13.4193 12.2473 12.2472C13.4194 11.0751 15.0091 10.4167 16.6667 10.4167ZM16.6667 14.5833C16.1142 14.5833 15.5843 14.8028 15.1936 15.1935C14.8029 15.5842 14.5834 16.1141 14.5834 16.6667V33.3333C14.5834 33.8859 14.8029 34.4158 15.1936 34.8065C15.5843 35.1972 16.1142 35.4167 16.6667 35.4167H33.3334C33.886 35.4167 34.4159 35.1972 34.8066 34.8065C35.1973 34.4158 35.4167 33.8859 35.4167 33.3333V16.6667C35.4167 16.1141 35.1973 15.5842 34.8066 15.1935C34.4159 14.8028 33.886 14.5833 33.3334 14.5833H16.6667ZM20.8334 18.75H29.1667C29.7193 18.75 30.2492 18.9695 30.6399 19.3602C31.0306 19.7509 31.2501 20.2808 31.2501 20.8333V29.1667C31.2501 29.7192 31.0306 30.2491 30.6399 30.6398C30.2492 31.0305 29.7193 31.25 29.1667 31.25H20.8334C20.2809 31.25 19.751 31.0305 19.3603 30.6398C18.9696 30.2491 18.7501 29.7192 18.7501 29.1667V20.8333C18.7501 20.2808 18.9696 19.7509 19.3603 19.3602C19.751 18.9695 20.2809 18.75 20.8334 18.75ZM22.9167 22.9167V27.0833H27.0834V22.9167H22.9167ZM16.6667 4.16666C17.2193 4.16666 17.7492 4.38615 18.1399 4.77685C18.5306 5.16755 18.7501 5.69746 18.7501 6.24999V10.4167C18.7501 10.9692 18.5306 11.4991 18.1399 11.8898C17.7492 12.2805 17.2193 12.5 16.6667 12.5C16.1142 12.5 15.5843 12.2805 15.1936 11.8898C14.8029 11.4991 14.5834 10.9692 14.5834 10.4167V6.24999C14.5834 5.69746 14.8029 5.16755 15.1936 4.77685C15.5843 4.38615 16.1142 4.16666 16.6667 4.16666ZM6.25008 14.5833H10.4167C10.9693 14.5833 11.4992 14.8028 11.8899 15.1935C12.2806 15.5842 12.5001 16.1141 12.5001 16.6667C12.5001 17.2192 12.2806 17.7491 11.8899 18.1398C11.4992 18.5305 10.9693 18.75 10.4167 18.75H6.25008C5.69755 18.75 5.16764 18.5305 4.77694 18.1398C4.38624 17.7491 4.16675 17.2192 4.16675 16.6667C4.16675 16.1141 4.38624 15.5842 4.77694 15.1935C5.16764 14.8028 5.69755 14.5833 6.25008 14.5833ZM39.5834 14.5833H43.7501C44.3026 14.5833 44.8325 14.8028 45.2232 15.1935C45.6139 15.5842 45.8334 16.1141 45.8334 16.6667C45.8334 17.2192 45.6139 17.7491 45.2232 18.1398C44.8325 18.5305 44.3026 18.75 43.7501 18.75H39.5834C39.0309 18.75 38.501 18.5305 38.1103 18.1398C37.7196 17.7491 37.5001 17.2192 37.5001 16.6667C37.5001 16.1141 37.7196 15.5842 38.1103 15.1935C38.501 14.8028 39.0309 14.5833 39.5834 14.5833ZM6.25008 22.9167H10.4167C10.9693 22.9167 11.4992 23.1362 11.8899 23.5269C12.2806 23.9176 12.5001 24.4475 12.5001 25C12.5001 25.5525 12.2806 26.0824 11.8899 26.4731C11.4992 26.8638 10.9693 27.0833 10.4167 27.0833H6.25008C5.69755 27.0833 5.16764 26.8638 4.77694 26.4731C4.38624 26.0824 4.16675 25.5525 4.16675 25C4.16675 24.4475 4.38624 23.9176 4.77694 23.5269C5.16764 23.1362 5.69755 22.9167 6.25008 22.9167ZM39.5834 22.9167H43.7501C44.3026 22.9167 44.8325 23.1362 45.2232 23.5269C45.6139 23.9176 45.8334 24.4475 45.8334 25C45.8334 25.5525 45.6139 26.0824 45.2232 26.4731C44.8325 26.8638 44.3026 27.0833 43.7501 27.0833H39.5834C39.0309 27.0833 38.501 26.8638 38.1103 26.4731C37.7196 26.0824 37.5001 25.5525 37.5001 25C37.5001 24.4475 37.7196 23.9176 38.1103 23.5269C38.501 23.1362 39.0309 22.9167 39.5834 22.9167ZM6.25008 31.25H10.4167C10.9693 31.25 11.4992 31.4695 11.8899 31.8602C12.2806 32.2509 12.5001 32.7808 12.5001 33.3333C12.5001 33.8859 12.2806 34.4158 11.8899 34.8065C11.4992 35.1972 10.9693 35.4167 10.4167 35.4167H6.25008C5.69755 35.4167 5.16764 35.1972 4.77694 34.8065C4.38624 34.4158 4.16675 33.8859 4.16675 33.3333C4.16675 32.7808 4.38624 32.2509 4.77694 31.8602C5.16764 31.4695 5.69755 31.25 6.25008 31.25ZM39.5834 31.25H43.7501C44.3026 31.25 44.8325 31.4695 45.2232 31.8602C45.6139 32.2509 45.8334 32.7808 45.8334 33.3333C45.8334 33.8859 45.6139 34.4158 45.2232 34.8065C44.8325 35.1972 44.3026 35.4167 43.7501 35.4167H39.5834C39.0309 35.4167 38.501 35.1972 38.1103 34.8065C37.7196 34.4158 37.5001 33.8859 37.5001 33.3333C37.5001 32.7808 37.7196 32.2509 38.1103 31.8602C38.501 31.4695 39.0309 31.25 39.5834 31.25ZM16.6667 37.5C17.2193 37.5 17.7492 37.7195 18.1399 38.1102C18.5306 38.5009 18.7501 39.0308 18.7501 39.5833V43.75C18.7501 44.3025 18.5306 44.8324 18.1399 45.2231C17.7492 45.6138 17.2193 45.8333 16.6667 45.8333C16.1142 45.8333 15.5843 45.6138 15.1936 45.2231C14.8029 44.8324 14.5834 44.3025 14.5834 43.75V39.5833C14.5834 39.0308 14.8029 38.5009 15.1936 38.1102C15.5843 37.7195 16.1142 37.5 16.6667 37.5ZM33.3334 4.16666C33.886 4.16666 34.4159 4.38615 34.8066 4.77685C35.1973 5.16755 35.4167 5.69746 35.4167 6.24999V10.4167C35.4167 10.9692 35.1973 11.4991 34.8066 11.8898C34.4159 12.2805 33.886 12.5 33.3334 12.5C32.7809 12.5 32.251 12.2805 31.8603 11.8898C31.4696 11.4991 31.2501 10.9692 31.2501 10.4167V6.24999C31.2501 5.69746 31.4696 5.16755 31.8603 4.77685C32.251 4.38615 32.7809 4.16666 33.3334 4.16666ZM33.3334 37.5C33.886 37.5 34.4159 37.7195 34.8066 38.1102C35.1973 38.5009 35.4167 39.0308 35.4167 39.5833V43.75C35.4167 44.3025 35.1973 44.8324 34.8066 45.2231C34.4159 45.6138 33.886 45.8333 33.3334 45.8333C32.7809 45.8333 32.251 45.6138 31.8603 45.2231C31.4696 44.8324 31.2501 44.3025 31.2501 43.75V39.5833C31.2501 39.0308 31.4696 38.5009 31.8603 38.1102C32.251 37.7195 32.7809 37.5 33.3334 37.5ZM25.0001 4.16666C25.5526 4.16666 26.0825 4.38615 26.4732 4.77685C26.8639 5.16755 27.0834 5.69746 27.0834 6.24999V10.4167C27.0834 10.9692 26.8639 11.4991 26.4732 11.8898C26.0825 12.2805 25.5526 12.5 25.0001 12.5C24.4475 12.5 23.9176 12.2805 23.5269 11.8898C23.1362 11.4991 22.9167 10.9692 22.9167 10.4167V6.24999C22.9167 5.69746 23.1362 5.16755 23.5269 4.77685C23.9176 4.38615 24.4475 4.16666 25.0001 4.16666ZM25.0001 37.5C25.5526 37.5 26.0825 37.7195 26.4732 38.1102C26.8639 38.5009 27.0834 39.0308 27.0834 39.5833V43.75C27.0834 44.3025 26.8639 44.8324 26.4732 45.2231C26.0825 45.6138 25.5526 45.8333 25.0001 45.8333C24.4475 45.8333 23.9176 45.6138 23.5269 45.2231C23.1362 44.8324 22.9167 44.3025 22.9167 43.75V39.5833C22.9167 39.0308 23.1362 38.5009 23.5269 38.1102C23.9176 37.7195 24.4475 37.5 25.0001 37.5Z" fill="#A33534"/>
</svg>
