<svg width="40" height="40" viewBox="0 0 40 40" fill="none" xmlns="http://www.w3.org/2000/svg">
<path d="M7.5 7.5C7.5 4.74219 9.74219 2.5 12.5 2.5H35C37.7578 2.5 40 4.74219 40 7.5V32.5C40 35.2578 37.7578 37.5 35 37.5H6.25C2.79688 37.5 0 34.7031 0 31.25V10C0 8.61719 1.11719 7.5 2.5 7.5C3.88281 7.5 5 8.61719 5 10V31.25C5 31.9375 5.5625 32.5 6.25 32.5C6.9375 32.5 7.5 31.9375 7.5 31.25V7.5ZM12.5 9.375V15.625C12.5 16.6641 13.3359 17.5 14.375 17.5H23.125C24.1641 17.5 25 16.6641 25 15.625V9.375C25 8.33594 24.1641 7.5 23.125 7.5H14.375C13.3359 7.5 12.5 8.33594 12.5 9.375ZM28.75 8.75C28.75 9.4375 29.3125 10 30 10H33.75C34.4375 10 35 9.4375 35 8.75C35 8.0625 34.4375 7.5 33.75 7.5H30C29.3125 7.5 28.75 8.0625 28.75 8.75ZM28.75 16.25C28.75 16.9375 29.3125 17.5 30 17.5H33.75C34.4375 17.5 35 16.9375 35 16.25C35 15.5625 34.4375 15 33.75 15H30C29.3125 15 28.75 15.5625 28.75 16.25ZM12.5 23.75C12.5 24.4375 13.0625 25 13.75 25H33.75C34.4375 25 35 24.4375 35 23.75C35 23.0625 34.4375 22.5 33.75 22.5H13.75C13.0625 22.5 12.5 23.0625 12.5 23.75ZM12.5 31.25C12.5 31.9375 13.0625 32.5 13.75 32.5H33.75C34.4375 32.5 35 31.9375 35 31.25C35 30.5625 34.4375 30 33.75 30H13.75C13.0625 30 12.5 30.5625 12.5 31.25Z" fill="#A33534"/>
</svg>
