<svg width="40" height="40" viewBox="0 0 40 40" fill="none" xmlns="http://www.w3.org/2000/svg">
<g clip-path="url(#clip0_7_155)">
<path d="M12.2345 30.0704L9.82039 27.6563C9.15633 26.9922 8.92195 26.0313 9.21883 25.1407C9.4532 24.4454 9.7657 23.5391 10.1407 22.5H1.87508C1.2032 22.5 0.578201 22.1407 0.242263 21.5547C-0.0936742 20.9688 -0.0858617 20.25 0.257888 19.6719L4.35945 12.7579C5.37508 11.0469 7.21101 10 9.19539 10H15.6251C15.8126 9.68754 16.0001 9.39848 16.1876 9.11723C22.586 -0.320268 32.1173 -0.632768 37.8048 0.414107C38.711 0.57817 39.4141 1.28911 39.586 2.19536C40.6329 7.89067 40.3126 17.4141 30.8829 23.8125C30.6095 24 30.3126 24.1875 30.0001 24.375V30.8047C30.0001 32.7891 28.9532 34.6329 27.2423 35.6407L20.3282 39.7422C19.7501 40.086 19.0313 40.0938 18.4454 39.7579C17.8595 39.4219 17.5001 38.8047 17.5001 38.125V29.75C16.3985 30.1329 15.4376 30.4454 14.711 30.6797C13.836 30.961 12.8829 30.7188 12.2266 30.0704H12.2345ZM30.0001 13.125C30.8289 13.125 31.6237 12.7958 32.2098 12.2098C32.7958 11.6237 33.1251 10.8288 33.1251 10C33.1251 9.17124 32.7958 8.37639 32.2098 7.79034C31.6237 7.20428 30.8289 6.87504 30.0001 6.87504C29.1713 6.87504 28.3764 7.20428 27.7904 7.79034C27.2043 8.37639 26.8751 9.17124 26.8751 10C26.8751 10.8288 27.2043 11.6237 27.7904 12.2098C28.3764 12.7958 29.1713 13.125 30.0001 13.125Z" fill="#A33534"/>
</g>
<defs>
<clipPath id="clip0_7_155">
<rect width="40" height="40" fill="white"/>
</clipPath>
</defs>
</svg>
