<svg width="40" height="40" viewBox="0 0 40 40" fill="none" xmlns="http://www.w3.org/2000/svg">
<rect width="40" height="40" rx="20" fill="#A33534"/>
<path d="M14.2 28.976V26.456L21.592 19.868C22.168 19.356 22.568 18.872 22.792 18.416C23.016 17.96 23.128 17.52 23.128 17.096C23.128 16.52 23.004 16.008 22.756 15.56C22.508 15.104 22.164 14.744 21.724 14.48C21.292 14.216 20.792 14.084 20.224 14.084C19.624 14.084 19.092 14.224 18.628 14.504C18.172 14.776 17.816 15.14 17.56 15.596C17.304 16.052 17.184 16.544 17.2 17.072H14.224C14.224 15.92 14.48 14.916 14.992 14.06C15.512 13.204 16.224 12.54 17.128 12.068C18.04 11.596 19.092 11.36 20.284 11.36C21.388 11.36 22.38 11.608 23.26 12.104C24.14 12.592 24.832 13.272 25.336 14.144C25.84 15.008 26.092 16.004 26.092 17.132C26.092 17.956 25.98 18.648 25.756 19.208C25.532 19.768 25.196 20.284 24.748 20.756C24.308 21.228 23.76 21.752 23.104 22.328L17.86 26.972L17.596 26.252H26.092V28.976H14.2Z" fill="white"/>
</svg>
