<svg width="40" height="40" viewBox="0 0 40 40" fill="none" xmlns="http://www.w3.org/2000/svg">
<g clip-path="url(#clip0_7_126)">
<path d="M6.14064 0.390649C5.39845 -0.187476 4.34377 -0.117164 3.67189 0.546899L0.546892 3.6719C-0.117171 4.33596 -0.187483 5.39065 0.382829 6.14065L6.63283 14.2656C6.98439 14.7266 7.53908 15 8.1172 15H12.3438L20.8594 23.5156C19.711 25.7813 20.0781 28.625 21.9766 30.5156L30.7266 39.2656C31.7031 40.2422 33.2891 40.2422 34.2656 39.2656L39.2656 34.2656C40.2422 33.2891 40.2422 31.7031 39.2656 30.7266L30.5156 21.9766C28.625 20.086 25.7813 19.711 23.5156 20.8594L15 12.3438V8.11721C15 7.53127 14.7266 6.9844 14.2656 6.63284L6.14064 0.390649ZM1.5547 30.9453C0.562517 31.9375 1.66344e-05 33.2891 1.66344e-05 34.6953C1.66344e-05 37.625 2.37502 40 5.3047 40C6.71095 40 8.06252 39.4375 9.0547 38.4453L18.2578 29.2422C17.6485 27.6094 17.5547 25.836 17.9766 24.1563L13.1563 19.336L1.5547 30.9453ZM40 11.25C40 10.4297 39.9141 9.63284 39.75 8.86721C39.5625 7.99221 38.4922 7.76565 37.8594 8.39846L32.8672 13.3906C32.6328 13.625 32.3125 13.7578 31.9844 13.7578L27.5 13.75C26.8125 13.75 26.25 13.1875 26.25 12.5V8.01565C26.25 7.68752 26.3828 7.36721 26.6172 7.13284L31.6094 2.14065C32.2422 1.50784 32.0156 0.437524 31.1406 0.250024C30.3672 0.0859611 29.5703 2.36242e-05 28.75 2.36242e-05C22.5391 2.36242e-05 17.5 5.03909 17.5 11.25V11.3125L24.1641 17.9766C26.9766 17.2656 30.086 18.0156 32.2891 20.2188L33.5156 21.4453C37.3438 19.6485 40 15.7578 40 11.25ZM4.37502 33.75C4.37502 33.2527 4.57256 32.7758 4.92419 32.4242C5.27582 32.0726 5.75274 31.875 6.25002 31.875C6.7473 31.875 7.22421 32.0726 7.57584 32.4242C7.92747 32.7758 8.12502 33.2527 8.12502 33.75C8.12502 34.2473 7.92747 34.7242 7.57584 35.0758C7.22421 35.4275 6.7473 35.625 6.25002 35.625C5.75274 35.625 5.27582 35.4275 4.92419 35.0758C4.57256 34.7242 4.37502 34.2473 4.37502 33.75Z" fill="#A33534"/>
</g>
<defs>
<clipPath id="clip0_7_126">
<rect width="40" height="40" fill="white"/>
</clipPath>
</defs>
</svg>
