<svg width="50" height="50" viewBox="0 0 50 50" fill="none" xmlns="http://www.w3.org/2000/svg">
<g clip-path="url(#clip0_124_157)">
<path d="M20.0261 6.63547C16.7105 6.63547 11.6272 8.54901 13.3949 20.399C13.4226 20.5782 13.4556 20.7716 13.4938 20.9792C13.8167 22.7615 14.3147 25.5209 11.1459 27.7959C13.3011 29.5646 16.3709 31.3323 20.1011 32.098C19.9535 32.9439 19.7686 33.7829 19.547 34.6126C19.2438 35.7251 18.6084 36.5136 17.473 36.8501C16.473 37.1459 15.4251 37.3855 14.3522 37.6313C14.0758 37.6938 13.798 37.7577 13.5188 37.823C12.1803 38.1344 10.8157 38.4792 9.60633 38.9667C8.39383 39.4563 7.26675 40.1157 6.45216 41.099C5.623 42.1021 5.17925 43.3667 5.20945 44.948C5.21987 45.4396 5.6407 45.8334 6.15737 45.8334H43.8428C44.3595 45.8334 44.7803 45.4396 44.7907 44.948C44.8209 43.3667 44.3782 42.1021 43.548 41.099C42.7345 40.1157 41.6063 39.4553 40.3949 38.9667C39.1845 38.4782 37.8199 38.1334 36.4803 37.8219L35.649 37.6313C34.5751 37.3855 33.5272 37.1459 32.5272 36.8501C31.3917 36.5136 30.7563 35.7251 30.4532 34.6126C30.1884 33.6248 29.9777 32.6233 29.822 31.6126C32.674 30.7542 35.7053 29.2115 38.8542 26.748L38.8397 26.7334C37.3615 25.3188 34.5907 22.6667 34.3938 16.3709C34.3938 7.70214 28.8667 0.0833859 20.0261 6.63547Z" fill="#0D2438" stroke="#0D2438" stroke-width="2" stroke-linejoin="round"/>
</g>
<defs>
<clipPath id="clip0_124_157">
<rect width="50" height="50" fill="white"/>
</clipPath>
</defs>
</svg>
