<svg width="50" height="40" viewBox="0 0 50 40" fill="none" xmlns="http://www.w3.org/2000/svg">
<g clip-path="url(#clip0_7_124)">
<path d="M24.1016 10.5703C24.6563 10.0781 24.875 9.30469 24.5859 8.61719C24.4063 8.20312 24.2109 7.79688 23.9922 7.40625L23.75 6.98438C23.5156 6.59375 23.2578 6.21094 22.9844 5.84375C22.5391 5.25 21.7578 5.05469 21.0547 5.28906L18.8516 6.01562C18.0156 5.32812 17.0547 4.76562 16.0234 4.38281L15.5469 2.11719C15.3984 1.39062 14.8359 0.8125 14.1016 0.726563C13.5859 0.65625 13.0625 0.625 12.5313 0.625H12.4766C11.9453 0.625 11.4219 0.65625 10.9063 0.71875C10.1719 0.804687 9.60938 1.39062 9.46094 2.10938L8.98438 4.38281C7.94531 4.77344 6.99219 5.32812 6.15625 6.01562L3.94531 5.29688C3.24219 5.0625 2.46094 5.25781 2.01563 5.85156C1.74219 6.21875 1.48438 6.60156 1.24219 6.99219L1.00781 7.40625C0.789064 7.79688 0.593752 8.20312 0.414064 8.625C0.125002 9.30469 0.343752 10.0781 0.898439 10.5781L2.63281 12.125C2.54688 12.6484 2.5 13.1953 2.5 13.75C2.5 14.3047 2.54688 14.8516 2.63281 15.3828L0.898439 16.9297C0.343752 17.4219 0.125002 18.1953 0.414064 18.8828C0.593752 19.2969 0.789064 19.7031 1.00781 20.1016L1.24219 20.5078C1.47656 20.9062 1.73438 21.2812 2.01563 21.6484C2.46094 22.2422 3.24219 22.4375 3.94531 22.2031L6.14844 21.4766C6.98438 22.1641 7.94531 22.7266 8.97656 23.1094L9.45313 25.3828C9.60156 26.1094 10.1641 26.6875 10.8984 26.7734C11.4219 26.8359 11.9531 26.8672 12.4922 26.8672C13.3008 26.8672 13.5625 26.8359 14.0859 26.7734C14.8203 26.6875 15.3828 26.1016 15.5313 25.3828L16.0078 23.1094C17.0469 22.7188 18 22.1641 18.8359 21.4766L21.0391 22.2031C21.7422 22.4375 22.5234 22.2422 22.9688 21.6484C23.2422 21.2812 23.5 20.9062 23.7344 20.5078L23.9766 20.0859C24.1953 19.6953 24.3906 19.2891 24.5703 18.875C24.8594 18.1953 24.6406 17.4219 24.0859 16.9219L22.3516 15.375C22.4375 14.8438 22.4844 14.2969 22.4844 13.7422C22.4844 13.1875 22.4375 12.6406 22.3516 12.1094L24.0859 10.5625L24.1016 10.5703ZM8.75 13.75C8.75 12.7554 9.14509 11.8016 9.84835 11.0983C10.5516 10.3951 11.5054 10 12.5 10C13.4946 10 14.4484 10.3951 15.1517 11.0983C15.8549 11.8016 16.25 12.7554 16.25 13.75C16.25 14.7446 15.8549 15.6984 15.1517 16.4017C14.4484 17.1049 13.4946 17.5 12.5 17.5C11.5054 17.5 10.5516 17.1049 9.84835 16.4017C9.14509 15.6984 8.75 14.7446 8.75 13.75ZM39.4297 39.1016C39.9219 39.6562 40.6953 39.875 41.3828 39.5859C41.7969 39.4062 42.2031 39.2109 42.5938 38.9922L43.0156 38.75C43.4062 38.5156 43.7891 38.2578 44.1563 37.9844C44.75 37.5391 44.9453 36.7578 44.7109 36.0547L43.9844 33.8516C44.6719 33.0156 45.2344 32.0547 45.6172 31.0234L47.8906 30.5469C48.6172 30.3984 49.1953 29.8359 49.2812 29.1016C49.3438 28.5781 49.375 28.0469 49.375 27.5078C49.375 26.6992 49.3438 26.4375 49.2812 25.9141C49.1953 25.1797 48.6094 24.6172 47.8906 24.4688L45.6172 23.9844C45.2266 22.9453 44.6719 21.9922 43.9844 21.1562L44.7109 18.9531C44.9453 18.25 44.75 17.4688 44.1563 17.0234C43.7891 16.75 43.4062 16.4922 43.0156 16.25L42.6016 16.0156C42.2109 15.7969 41.8047 15.6016 41.3828 15.4219C40.7031 15.1328 39.9297 15.3516 39.4297 15.9062L37.8828 17.6406C37.3516 17.5547 36.8047 17.5078 36.25 17.5078C35.6953 17.5078 35.1484 17.5547 34.6172 17.6406L33.0703 15.9062C32.5781 15.3516 31.8047 15.1328 31.1172 15.4219C30.7031 15.6016 30.2969 15.7969 29.8984 16.0156L29.4922 16.25C29.0938 16.4844 28.7188 16.7422 28.3516 17.0234C27.7578 17.4688 27.5625 18.25 27.7969 18.9531L28.5234 21.1562C27.8359 21.9922 27.2734 22.9531 26.8906 23.9844L24.6172 24.4531C23.8906 24.6016 23.3125 25.1641 23.2266 25.8984C23.1641 26.4219 23.1328 26.9531 23.1328 27.4922C23.1328 28.3008 23.1641 28.5625 23.2266 29.0859C23.3125 29.8203 23.8984 30.3828 24.6172 30.5312L26.8906 31.0078C27.2813 32.0469 27.8359 33 28.5234 33.8359L27.7969 36.0391C27.5625 36.7422 27.7578 37.5234 28.3516 37.9688C28.7188 38.2422 29.0938 38.5 29.4922 38.7344L29.9141 38.9766C30.3047 39.1953 30.7109 39.3906 31.125 39.5703C31.8047 39.8594 32.5781 39.6406 33.0781 39.0859L34.625 37.3516C35.1563 37.4375 35.7031 37.4844 36.2578 37.4844C36.8125 37.4844 37.3594 37.4375 37.8906 37.3516L39.4375 39.0859L39.4297 39.1016ZM36.25 23.75C36.7425 23.75 37.2301 23.847 37.6851 24.0355C38.14 24.2239 38.5534 24.5001 38.9017 24.8483C39.2499 25.1966 39.5261 25.61 39.7146 26.0649C39.903 26.5199 40 27.0075 40 27.5C40 27.9925 39.903 28.4801 39.7146 28.9351C39.5261 29.39 39.2499 29.8034 38.9017 30.1517C38.5534 30.4999 38.14 30.7761 37.6851 30.9645C37.2301 31.153 36.7425 31.25 36.25 31.25C35.7575 31.25 35.2699 31.153 34.8149 30.9645C34.36 30.7761 33.9466 30.4999 33.5984 30.1517C33.2501 29.8034 32.9739 29.39 32.7855 28.9351C32.597 28.4801 32.5 27.9925 32.5 27.5C32.5 27.0075 32.597 26.5199 32.7855 26.0649C32.9739 25.61 33.2501 25.1966 33.5984 24.8483C33.9466 24.5001 34.36 24.2239 34.8149 24.0355C35.2699 23.847 35.7575 23.75 36.25 23.75Z" fill="#A33534"/>
</g>
<defs>
<clipPath id="clip0_7_124">
<rect width="50" height="40" fill="white"/>
</clipPath>
</defs>
</svg>
