<svg width="16" height="16" viewBox="0 0 16 16" fill="none" xmlns="http://www.w3.org/2000/svg">
<path d="M8.00016 1.33337C7.12468 1.33337 6.25778 1.50581 5.44894 1.84084C4.6401 2.17588 3.90517 2.66694 3.28612 3.286C2.03587 4.53624 1.3335 6.23193 1.3335 8.00004C1.3335 9.76815 2.03587 11.4638 3.28612 12.7141C3.90517 13.3331 4.6401 13.8242 5.44894 14.1592C6.25778 14.4943 7.12468 14.6667 8.00016 14.6667C9.76827 14.6667 11.464 13.9643 12.7142 12.7141C13.9644 11.4638 14.6668 9.76815 14.6668 8.00004C14.6668 7.12456 14.4944 6.25765 14.1594 5.44882C13.8243 4.63998 13.3333 3.90505 12.7142 3.286C12.0951 2.66694 11.3602 2.17588 10.5514 1.84084C9.74255 1.50581 8.87564 1.33337 8.00016 1.33337ZM10.8002 10.8L7.3335 8.66671V4.66671H8.3335V8.13337L11.3335 9.93337L10.8002 10.8Z" fill="#A33534"/>
</svg>
