<svg width="40" height="40" viewBox="0 0 40 40" fill="none" xmlns="http://www.w3.org/2000/svg">
<g clip-path="url(#clip0_159_175)">
<path fill-rule="evenodd" clip-rule="evenodd" d="M17.9974 5C17.8657 5.00066 17.7395 5.05328 17.6464 5.14644C17.5532 5.2396 17.5006 5.36576 17.4999 5.4975C17.4999 10.0175 12.6049 12.845 8.68994 10.5825C8.57544 10.5171 8.43973 10.4996 8.31237 10.5338C8.18502 10.568 8.07632 10.6511 8.00994 10.765L6.00994 14.235C5.94512 14.349 5.92766 14.4839 5.96133 14.6106C5.995 14.7373 6.0771 14.8457 6.18994 14.9125C10.1049 17.175 10.1049 22.825 6.18994 25.0875C6.07667 25.1539 5.99405 25.2621 5.9599 25.3889C5.92575 25.5156 5.94283 25.6507 6.00744 25.765L8.00994 29.235C8.07632 29.3489 8.18502 29.432 8.31237 29.4662C8.43973 29.5004 8.57544 29.4829 8.68994 29.4175C12.6049 27.155 17.4999 29.9825 17.4999 34.5C17.4999 34.775 17.7224 34.9975 17.9974 34.9975H21.9999C22.2749 34.9975 22.4974 34.775 22.4974 34.5C22.4974 29.98 27.3924 27.1525 31.3074 29.415C31.4217 29.4796 31.5568 29.4967 31.6836 29.4625C31.8103 29.4284 31.9186 29.3458 31.9849 29.2325L33.9899 25.7625C34.0546 25.6482 34.0716 25.5131 34.0375 25.3864C34.0033 25.2596 33.9207 25.1514 33.8074 25.085C30.5499 23.2025 30.0174 19 32.1449 16.335C32.4574 15.9532 32.9078 15.7099 33.3985 15.6579C33.8892 15.6059 34.3805 15.7495 34.7661 16.0574C35.1516 16.3653 35.4003 16.8127 35.4581 17.3028C35.5159 17.7928 35.3782 18.2858 35.0749 18.675C34.8859 18.9149 34.7507 19.1927 34.6785 19.4895C34.6062 19.7862 34.5987 20.0951 34.6563 20.395C34.7139 20.695 34.8354 20.979 35.0124 21.2279C35.1895 21.4768 35.418 21.6847 35.6824 21.8375C36.657 22.4012 37.368 23.3285 37.6596 24.4159C37.9511 25.5033 37.7993 26.6619 37.2374 27.6375L35.2324 31.1075C34.6688 32.082 33.7415 32.7931 32.6541 33.0846C31.5667 33.3762 30.408 33.2244 29.4324 32.6625C29.1097 32.4767 28.7437 32.3791 28.3713 32.3792C27.9989 32.3794 27.6331 32.4775 27.3105 32.6636C26.988 32.8497 26.7199 33.1173 26.5334 33.4396C26.3468 33.7619 26.2482 34.1276 26.2474 34.5C26.2474 36.845 24.3474 38.7475 21.9999 38.7475H17.9999C15.6549 38.7475 13.7524 36.8475 13.7524 34.5C13.7517 34.1276 13.6531 33.7619 13.4665 33.4396C13.2799 33.1173 13.0119 32.8497 12.6894 32.6636C12.3668 32.4775 12.001 32.3794 11.6285 32.3792C11.2561 32.3791 10.8902 32.4767 10.5674 32.6625C9.59186 33.2244 8.43322 33.3762 7.34581 33.0846C6.25841 32.7931 5.33111 32.082 4.76744 31.1075L2.76244 27.6375C2.20058 26.6619 2.04876 25.5033 2.3403 24.4159C2.63183 23.3285 3.34291 22.4012 4.31744 21.8375C4.64034 21.651 4.90846 21.3827 5.09487 21.0597C5.28128 20.7368 5.37942 20.3704 5.37942 19.9975C5.37942 19.6246 5.28128 19.2582 5.09487 18.9353C4.90846 18.6123 4.64034 18.344 4.31744 18.1575C3.34291 17.5938 2.63183 16.6665 2.3403 15.5791C2.04876 14.4917 2.20058 13.3331 2.76244 12.3575L4.76494 8.8875C5.32861 7.91297 6.25591 7.20189 7.34331 6.91036C8.43071 6.61882 9.58936 6.77064 10.5649 7.3325C10.8873 7.51806 11.2528 7.61574 11.6248 7.61577C11.9968 7.61579 12.3623 7.51817 12.6847 7.33266C13.0071 7.14715 13.2752 6.88025 13.4622 6.55864C13.6491 6.23703 13.7483 5.87199 13.7499 5.5C13.7499 3.15 15.6499 1.25 17.9974 1.25H23.2499C23.4962 1.25 23.74 1.2985 23.9675 1.39273C24.195 1.48695 24.4017 1.62506 24.5758 1.79917C24.7499 1.97328 24.888 2.17998 24.9822 2.40747C25.0764 2.63495 25.1249 2.87877 25.1249 3.125C25.1249 3.37123 25.0764 3.61505 24.9822 3.84253C24.888 4.07002 24.7499 4.27672 24.5758 4.45083C24.4017 4.62493 24.195 4.76305 23.9675 4.85727C23.74 4.9515 23.4962 5 23.2499 5H17.9974ZM19.9974 23.75C20.992 23.75 21.9458 23.3549 22.6491 22.6517C23.3524 21.9484 23.7474 20.9946 23.7474 20C23.7474 19.0054 23.3524 18.0516 22.6491 17.3483C21.9458 16.6451 20.992 16.25 19.9974 16.25C19.0029 16.25 18.0491 16.6451 17.3458 17.3483C16.6425 18.0516 16.2474 19.0054 16.2474 20C16.2474 20.9946 16.6425 21.9484 17.3458 22.6517C18.0491 23.3549 19.0029 23.75 19.9974 23.75ZM19.9999 27.5C21.9891 27.5 23.8967 26.7098 25.3032 25.3033C26.7098 23.8968 27.4999 21.9891 27.4999 20C27.4999 18.0109 26.7098 16.1032 25.3032 14.6967C23.8967 13.2902 21.9891 12.5 19.9999 12.5C18.0108 12.5 16.1032 13.2902 14.6966 14.6967C13.2901 16.1032 12.4999 18.0109 12.4999 20C12.4999 21.9891 13.2901 23.8968 14.6966 25.3033C16.1032 26.7098 18.0108 27.5 19.9999 27.5Z" fill="#A33534"/>
<path fill-rule="evenodd" clip-rule="evenodd" d="M31.25 13.75C32.5761 13.75 33.8479 13.2232 34.7855 12.2855C35.7232 11.3479 36.25 10.0761 36.25 8.75C36.25 7.42392 35.7232 6.15215 34.7855 5.21447C33.8479 4.27678 32.5761 3.75 31.25 3.75C29.9239 3.75 28.6521 4.27678 27.7145 5.21447C26.7768 6.15215 26.25 7.42392 26.25 8.75C26.25 10.0761 26.7768 11.3479 27.7145 12.2855C28.6521 13.2232 29.9239 13.75 31.25 13.75Z" fill="#A33534"/>
</g>
<defs>
<clipPath id="clip0_159_175">
<rect width="40" height="40" fill="white"/>
</clipPath>
</defs>
</svg>
