<svg width="40" height="40" viewBox="0 0 40 40" fill="none" xmlns="http://www.w3.org/2000/svg">
<g clip-path="url(#clip0_159_299)">
<g clip-path="url(#clip1_159_299)">
<path d="M33.9466 26.7733C34.5066 25.8133 35.7599 25.4667 36.7199 26.0267L38.9866 27.3333C39.9466 27.8933 40.2932 29.12 39.7332 30.1067L34.5866 38.9867C34.0266 39.9467 32.7732 40.2933 31.8132 39.7333L29.5466 38.4267C29.1884 38.2165 28.9023 37.9026 28.7261 37.5265C28.55 37.1504 28.492 36.7297 28.5599 36.32C28.6132 36.1067 28.6932 35.8667 28.7999 35.6533L33.9466 26.7733ZM3.27991 26.0267C4.23991 25.4667 5.49324 25.8133 6.05324 26.7733L11.1999 35.6533C11.3066 35.8667 11.3866 36.1067 11.4399 36.32C11.5732 37.1467 11.1999 38 10.4532 38.4267L8.18658 39.7333C7.22658 40.2933 5.97324 39.9467 5.41324 38.9867L0.266577 30.1067C-0.000438094 29.6395 -0.0717877 29.0857 0.068104 28.5661C0.207996 28.0465 0.547767 27.6033 1.01324 27.3333L3.27991 26.0267ZM23.0932 0C30.8799 0 36.6666 7.2 34.9866 14.7733L32.9866 23.76C32.3656 24.1634 31.8529 24.7127 31.4932 25.36L26.3466 34.24C25.9466 34.9333 25.7332 35.7067 25.7066 36.4533H14.2932C14.2666 35.7067 14.0532 34.9333 13.6532 34.24L8.50658 25.36C8.14694 24.7127 7.63422 24.1634 7.01324 23.76L5.01324 14.7733C3.33324 7.2 9.11991 0 16.9066 0H23.0932ZM19.9999 21.2533C17.6799 21.2533 15.7332 22.9867 15.4932 25.28L15.2266 27.68C15.0666 29.12 16.1866 30.3733 17.6532 30.3733H22.3466C23.8132 30.3733 24.9332 29.12 24.7732 27.68L24.5066 25.28C24.2666 22.9867 22.3199 21.2533 19.9999 21.2533ZM23.0932 4.05333H16.9066C11.7066 4.05333 7.86658 8.85333 8.98658 13.8933L9.57324 16.48C10.1332 19.0133 13.3599 19.7333 14.9599 17.68L16.7732 15.3067C18.3999 13.2 21.5999 13.2 23.2266 15.3067L25.0399 17.68C26.6399 19.7333 29.8666 19.0133 30.4266 16.48L31.0132 13.8933C31.2744 12.7093 31.2663 11.4818 30.9896 10.3013C30.7128 9.12082 30.1744 8.01759 29.4142 7.07305C28.654 6.12852 27.6913 5.3668 26.5972 4.84414C25.5032 4.32148 24.3057 4.05123 23.0932 4.05333Z" fill="#A33534"/>
</g>
</g>
<defs>
<clipPath id="clip0_159_299">
<rect width="40" height="40" fill="white"/>
</clipPath>
<clipPath id="clip1_159_299">
<rect width="40" height="40" fill="white"/>
</clipPath>
</defs>
</svg>
