<svg width="25" height="25" viewBox="0 0 25 25" fill="none" xmlns="http://www.w3.org/2000/svg">
<path d="M15 12.8125V5C15 4.30859 14.4414 3.75 13.75 3.75H11.25C10.5586 3.75 10 4.30859 10 5V12.8125C10 13.332 9.58203 13.75 9.0625 13.75C8.54297 13.75 8.125 13.332 8.125 12.8125V5.55078C4.76562 6.78906 2.5 9.99219 2.5 13.75V16.25H22.5V13.75C22.4609 10.0313 20.2187 6.80859 16.875 5.55469V12.8125C16.875 13.332 16.457 13.75 15.9375 13.75C15.418 13.75 15 13.332 15 12.8125ZM2.8125 18.125C1.94922 18.125 1.25 18.8242 1.25 19.6875C1.25 20.5508 1.94922 21.25 2.8125 21.25H22.1875C23.0508 21.25 23.75 20.5508 23.75 19.6875C23.75 18.8242 23.0508 18.125 22.1875 18.125H2.8125Z" fill="#0D2438"/>
</svg>
