<svg width="22" height="22" viewBox="0 0 22 22" fill="none" xmlns="http://www.w3.org/2000/svg">
<path d="M3.66659 18.3333C3.16242 18.3333 2.73097 18.1539 2.37225 17.7952C2.01353 17.4365 1.83386 17.0047 1.83325 16.5V5.49996C1.83325 4.99579 2.01292 4.56435 2.37225 4.20563C2.73159 3.8469 3.16303 3.66724 3.66659 3.66663H18.3333C18.8374 3.66663 19.2692 3.84629 19.6285 4.20563C19.9878 4.56496 20.1672 4.9964 20.1666 5.49996V16.5C20.1666 17.0041 19.9872 17.4359 19.6285 17.7952C19.2698 18.1545 18.838 18.3339 18.3333 18.3333H3.66659ZM10.9999 11.9166L18.3333 7.33329V5.49996L10.9999 10.0833L3.66659 5.49996V7.33329L10.9999 11.9166Z" fill="white"/>
</svg>
