<svg width="50" height="50" viewBox="0 0 50 50" fill="none" xmlns="http://www.w3.org/2000/svg">
<path d="M26.5623 8.20834C28.6457 6.70834 31.0623 5.95834 33.7915 5.95834C35.2915 5.95834 36.9373 6.35417 38.729 7.18751C40.5207 8.00001 41.9373 8.95834 42.979 10.0625C45.1248 12.7292 46.0207 15.8333 45.7082 19.375C45.3748 22.9167 44.2082 25.6875 42.1873 27.6458L26.3748 43.4583C25.979 43.8542 25.479 44.0417 24.8957 44.0417C24.3123 44.0417 23.8332 43.8542 23.4373 43.4583C23.2447 43.2687 23.0935 43.0412 22.9931 42.7902C22.8927 42.5392 22.8453 42.2702 22.854 42C22.854 41.4167 23.0415 40.9167 23.4373 40.5208L32.9998 30.9583C33.5207 30.5 33.5207 30.0208 32.9998 29.5C32.479 28.9792 31.9998 28.9792 31.5415 29.5L21.979 39.0625C21.7862 39.2567 21.5552 39.4088 21.3006 39.5092C21.046 39.6097 20.7733 39.6562 20.4998 39.6458C19.9165 39.6458 19.4373 39.4583 19.0415 39.0625C18.8489 38.8728 18.6976 38.6454 18.5972 38.3944C18.4968 38.1434 18.4495 37.8743 18.4582 37.6042C18.4582 37.0208 18.6457 36.5208 19.0415 36.125L28.604 26.5625C29.1665 26.0417 29.1665 25.5208 28.604 25C28.1248 24.4792 27.6665 24.4792 27.1457 25L17.5832 34.6667C17.3882 34.8579 17.1568 35.0081 16.9027 35.1082C16.6486 35.2084 16.377 35.2567 16.104 35.25C15.5207 35.25 15.0207 35.0625 14.5832 34.6667C14.1665 34.2708 13.9582 33.7917 13.9582 33.2083C13.9582 32.625 14.1873 32.1042 14.6457 31.6458L24.229 22.0625C24.7498 21.5417 24.7498 21.0625 24.229 20.6042C23.7082 20.1458 23.2082 20.1458 22.7498 20.6042L13.0832 30.2083C12.6248 30.625 12.1457 30.8542 11.6248 30.8542C11.0415 30.8542 10.5415 30.6458 10.1665 30.2083C9.77067 29.7917 9.56233 29.2917 9.56233 28.7083C9.56233 28.125 9.77067 27.6458 10.1665 27.25C16.5415 20.8333 20.479 16.9583 21.979 15.5208L29.3957 22.8542C30.2082 23.625 31.1457 24.0208 32.2915 24.0208C33.7498 24.0208 34.8957 23.4375 35.7498 22.2708C36.3332 21.4167 36.5415 20.4792 36.3748 19.4375C36.2082 18.3958 35.7707 17.5208 35.0623 16.7917L26.5623 8.20834ZM30.854 21.3958L21.979 12.5L7.229 27.25C5.479 25.4792 4.479 22.7708 4.24983 19.0833C4.02067 15.4167 5.02067 12.2292 7.229 9.56251C9.70817 7.10417 12.6665 5.85417 16.104 5.85417C19.5623 5.85417 22.4998 7.10417 24.8957 9.56251L33.7915 18.4583C34.1873 18.8542 34.3748 19.3333 34.3748 19.9167C34.3748 20.5 34.1873 21 33.7915 21.3958C33.3957 21.7708 32.9165 21.9792 32.2915 21.9792C31.729 21.9792 31.2498 21.7708 30.854 21.3958Z" fill="#A33534"/>
</svg>
