<svg width="40" height="40" viewBox="0 0 40 40" fill="none" xmlns="http://www.w3.org/2000/svg">
<rect width="40" height="40" rx="20" fill="#A33534"/>
<path d="M19.624 29.324C18.76 29.324 17.944 29.156 17.176 28.82C16.408 28.484 15.74 28.008 15.172 27.392C14.612 26.776 14.208 26.048 13.96 25.208L16.756 24.452C16.956 25.14 17.32 25.672 17.848 26.048C18.384 26.416 18.972 26.596 19.612 26.588C20.18 26.588 20.688 26.456 21.136 26.192C21.584 25.928 21.936 25.572 22.192 25.124C22.448 24.668 22.576 24.16 22.576 23.6C22.576 22.744 22.3 22.028 21.748 21.452C21.196 20.876 20.484 20.588 19.612 20.588C19.348 20.588 19.088 20.624 18.832 20.696C18.584 20.768 18.344 20.868 18.112 20.996L16.792 18.716L22.6 13.748L22.852 14.444H14.632V11.72H25.228V14.456L20.56 18.944L20.536 18.092C21.584 18.164 22.476 18.456 23.212 18.968C23.956 19.48 24.524 20.14 24.916 20.948C25.316 21.756 25.516 22.64 25.516 23.6C25.516 24.688 25.248 25.664 24.712 26.528C24.184 27.392 23.472 28.076 22.576 28.58C21.688 29.076 20.704 29.324 19.624 29.324Z" fill="white"/>
</svg>
